<svg xmlns="http://www.w3.org/2000/svg" viewBox="0 0 297.56 297.56"><defs><style>.cls-1{fill:#ba2025;}.cls-2{fill:#3e1211;}.cls-3{fill:#fff;stroke:#3d1412;stroke-miterlimit:10;}</style></defs><g id="Layer_2" data-name="Layer 2"><g id="Layer_1-2" data-name="Layer 1"><g id="Final"><circle class="cls-1" cx="148.78" cy="148.78" r="148.78"/><g id="Text_shadow" data-name="Text shadow"><path class="cls-2" d="M272.25,132.41a3.84,3.84,0,0,0,0-.83,3.5,3.5,0,0,0-.15-.64l0-.1a3.33,3.33,0,0,0-.26-.58s0,0,0-.06l-.12-.18-5.72-7.88.23-.89c.05-.2.09-.39.12-.59,0,0,0-.08,0-.13a10.61,10.61,0,0,0,.13-1.1,8.74,8.74,0,0,0-.06-1.65,7,7,0,0,0-.27-1.16l-.06-.18a6.18,6.18,0,0,0-.46-1,.36.36,0,0,1,0-.09,4,4,0,0,0-.23-.34l-9.23-12.71.07.11a5.78,5.78,0,0,0-1.8-1.67,7.91,7.91,0,0,0-5.65-.79,9.5,9.5,0,0,0-3.25,1.2,15.21,15.21,0,0,0-2.82,2.34,3.9,3.9,0,0,0-4-1.28,5.1,5.1,0,0,0-4.27,4.28l-1.81,7.1-5.2-7.18s0,0,0,0a3.15,3.15,0,0,0-1-.91,4,4,0,0,0-2.84-.45,5.7,5.7,0,0,0-2.5,1,5.5,5.5,0,0,0-1.4,1.73,7.41,7.41,0,0,0-6.37-1.34,12.51,12.51,0,0,0-5.28,2.37,17.54,17.54,0,0,0-4.1,4.43,19.49,19.49,0,0,0-2.24,4.85l-3.3-4.55.69-2.71.21-.91c0-.14,0-.27.08-.4a.28.28,0,0,1,0-.09,7.82,7.82,0,0,0,.1-.92s0-.1,0-.15a7.33,7.33,0,0,0,0-.83,4.11,4.11,0,0,0-.19-.75l-.1-.21c-.06-.11-.1-.23-.16-.34l-.13-.18-9.23-12.71a.25.25,0,0,1,0,.07,3.06,3.06,0,0,0-.91-.88,3.7,3.7,0,0,0-2.78-.47,5,5,0,0,0-3,1.71,10.21,10.21,0,0,0-1.79,3.94l-4.78,19-6.23-8.58a.2.2,0,0,1,0,.08,3,3,0,0,0-.91-.89,3.83,3.83,0,0,0-2.79-.47c-2.32.43-3.87,2-4.59,4.79l-1.34,5.09-1.93.35a5.83,5.83,0,0,0-3.45,2,4.58,4.58,0,0,0-1,2.26l-.89-1.21,0,0a3.15,3.15,0,0,0-1-.91,4,4,0,0,0-2.84-.45,5.8,5.8,0,0,0-2.51,1,5.9,5.9,0,0,0-1.39,1.73,7.41,7.41,0,0,0-6.37-1.33,12.49,12.49,0,0,0-5.28,2.36,17.53,17.53,0,0,0-4.1,4.43,19.32,19.32,0,0,0-2,4.16l-3.26-4.5.06.11a5.75,5.75,0,0,0-1.79-1.67,7.91,7.91,0,0,0-5.65-.79,9.63,9.63,0,0,0-3.25,1.2A15.36,15.36,0,0,0,111,128a4,4,0,0,0-4-1.28,5.12,5.12,0,0,0-4.27,4.29l-1.11,4.36-1.37-1.89a6.9,6.9,0,0,1,.42.63,9.23,9.23,0,0,0-2.85-3,10.57,10.57,0,0,0-4-1.56,12.45,12.45,0,0,0-2.88-.16l-.29-.4,3.08-12.47c.12-.46.23-.92.33-1.37,0-.13,0-.26.08-.4.07-.31.13-.62.19-.93h0v0c.1-.56.18-1.12.25-1.66,0-.14,0-.28,0-.42q.09-.83.12-1.62v0c0-.52,0-1,0-1.52,0-.13,0-.25,0-.38,0-.5-.07-1-.13-1.47s-.16-.89-.27-1.33c0-.14-.09-.28-.13-.42s-.17-.57-.27-.85-.13-.32-.2-.48-.21-.49-.33-.73l-.27-.49L93,102l-.29-.44c-.07-.1-.14-.21-.22-.31L83.23,88.55c.08.1.15.21.22.31a13.07,13.07,0,0,0-4-3.78,15.45,15.45,0,0,0-5.39-2,17.92,17.92,0,0,0-6.31.1c-3,.56-7.13,1.27-7.19,1.28s-3.41.8-5.68,1.22l-1.49.25a8,8,0,0,0-4.54,3.29c-1.39,2.3-1.37,4,.2,5.92l-.26-.33h0L58,107.52a12,12,0,0,0,1.22,1.39c1.26.69,3.93.61,5.21.37.9-.18,1.82-.36,2.71-.52l3-.55,1.71-.31-5.49,22.22-6.14,1.23c-2.11.39-4,.8-5.61,1.21s-3.11.86-4.42,1.33a24.82,24.82,0,0,0-3.64,1.61,32.8,32.8,0,0,0-3.29,2.05,26.1,26.1,0,0,0-8.79,9.74,19.71,19.71,0,0,0-2,11.84A17.11,17.11,0,0,0,35,165.86c.27.43.56.83.86,1.23l-.19-.24,9.23,12.71a16.11,16.11,0,0,0,4,3.88A17,17,0,0,0,55.13,186a19.29,19.29,0,0,0,7.42,0c.63-.12,1.23-.26,1.83-.43l.33-.09c.57-.16,1.12-.35,1.67-.56l.31-.12c.56-.22,1.11-.46,1.65-.73l0,0c.53-.27,1-.57,1.54-.88l.17-.1.12-.08c.4-.26.8-.53,1.19-.82l.07-.06c.36-.28.71-.57,1.06-.86l.13-.11.23-.22c.21-.19.42-.38.62-.58l.37-.37.61-.65a2.73,2.73,0,0,1,.23-.25l.1-.12c.24-.28.48-.57.71-.87l.18-.23c.29-.38.58-.77.85-1.17l0-.06a.67.67,0,0,0,.07-.11c.44-.65.86-1.32,1.26-2,.32-.54.61-1.08.89-1.61l0-.08q.34-.67.63-1.32c.44-1,.86-2.05,1.27-3.18l0-.14a.42.42,0,0,1,0-.1q.27-.78.54-1.65l0-.1c.19-.6.37-1.23.55-1.89.37-1.33.78-2.9,1.25-4.69l4.14,5.7a9.32,9.32,0,0,0,3.89,3.14,7.42,7.42,0,0,0,2.4.53l3.71,5.12-3,11.93-2-2.73c0,.07.09.15.14.23a4.54,4.54,0,0,0-2.13-1.75,10.91,10.91,0,0,0-6.14-.27,35.19,35.19,0,0,0-12.33,4.79A37.69,37.69,0,0,0,62.31,195a34.33,34.33,0,0,0-5.82,10.93,27,27,0,0,0-1,12.09,20.86,20.86,0,0,0,2.54,7.6c.31.53.65,1,1,1.53l0,0,9.23,12.71a16.78,16.78,0,0,0,3.93,3.87A17.42,17.42,0,0,0,79,246.4a23.21,23.21,0,0,0,8.29-.13c.77-.14,1.51-.32,2.24-.52l.7-.22c.49-.15,1-.3,1.44-.48l.78-.31c.43-.18.85-.36,1.27-.56l.76-.38q.62-.33,1.2-.69c.16-.09.32-.17.47-.27l.27-.18.65-.45c.3-.21.59-.43.89-.66s.42-.34.62-.51l.44-.35.48-.45c.13-.12.26-.24.38-.37.43-.42.86-.85,1.26-1.31l.08-.09c.4-.45.78-.92,1.15-1.42.11-.14.21-.29.32-.44s.41-.55.61-.84c.07-.1.13-.21.19-.31.19-.28.37-.57.56-.87s.41-.66.61-1l.52-1c.12-.22.24-.43.36-.66s.19-.39.29-.58l.22-.46c.31-.65.61-1.31.91-2,0-.08.07-.18.11-.26.26-.63.51-1.28.76-1.94l.19-.51c0-.14.1-.26.14-.4.16-.42.3-.88.45-1.32l.27-.81c.26-.84.52-1.71.76-2.6.31-1.05.7-2.51,1.15-4.32l1.33-5.35,4.43-17.22,5.25-1,.66-.13,3,4.15a3,3,0,0,0,.9.8,3.59,3.59,0,0,0,2.52.41,2,2,0,0,0,.26-.07l2.61,3.59a10.05,10.05,0,0,0,0,2.95,9,9,0,0,0,1.4,3.79c.14.2.28.38.43.57-.07-.1-.15-.19-.22-.28l9.23,12.71a9.31,9.31,0,0,0,2.59,2.41,10.66,10.66,0,0,0,3.78,1.45,11.75,11.75,0,0,0,4.38,0,13.29,13.29,0,0,0,4.72-1.84l.12-.07c.31-.2.6-.41.89-.63l.2-.16c.19-.15.38-.3.56-.46l.1-.09c.38-.35.75-.72,1.1-1.11l0,0c.25-.29.49-.58.72-.89l.24-.35s.07-.11.11-.17l.19-.3c.08-.13.16-.26.23-.4s.13-.22.19-.34l.09-.17s0-.11.08-.15c.19-.39.38-.8.57-1.24.12-.28.24-.59.36-.92l.12-.31c0-.13.09-.24.14-.37s.11-.34.17-.52,0-.12.07-.19c.13-.38.26-.79.4-1.22,0-.09.05-.19.08-.28.15-.45.29-.92.44-1.42.22-.72.37-1.25.45-1.57s.14-.58.24-1l5.06-.95a4.84,4.84,0,0,0,1-.27,2.55,2.55,0,0,0,.29-.13,5.23,5.23,0,0,0,.58-.29l.09,0c.13-.08.25-.18.37-.27l.22-.17.05,0a4.64,4.64,0,0,0,.49-.5.27.27,0,0,0,.07-.08,2.94,2.94,0,0,0,.31-.41,2.26,2.26,0,0,0,.16-.26l.08-.13s0-.06.05-.09a3.63,3.63,0,0,0,.22-.5s0-.06,0-.09,0-.13.05-.19a1.77,1.77,0,0,0,.08-.31,2.13,2.13,0,0,0,0-.25c0-.07,0-.14,0-.21a3.9,3.9,0,0,0,0-.76,4,4,0,0,0-.13-.58l0-.09a2.79,2.79,0,0,0-.24-.53s0,0,0,0l-.11-.16-5-7,.77-3,2.75,3.79a8,8,0,0,0,1.59,1.65,8.22,8.22,0,0,0,3.05,1.42,8.75,8.75,0,0,0,3.61.06l9.09-1.69a5.9,5.9,0,0,0,1-.27l.29-.14a6.27,6.27,0,0,0,.58-.29l.09,0,.38-.29a1.56,1.56,0,0,0,.2-.16l.05,0a5.66,5.66,0,0,0,.49-.49l.08-.1c.12-.14.22-.28.32-.42a2.54,2.54,0,0,0,.16-.28l.08-.12,0-.07a3.63,3.63,0,0,0,.22-.5l.06-.19h0a8.85,8.85,0,0,0,1.32.82,8.19,8.19,0,0,0,2.83.71,16.9,16.9,0,0,0,3.68-.34l8.9-1.66a6,6,0,0,0,1-.27l.29-.14a4.37,4.37,0,0,0,.57-.29l.09,0c.14-.09.26-.19.39-.29a1.49,1.49,0,0,1,.2-.15s0,0,0,0c.17-.16.33-.32.49-.5l.09-.1c.11-.14.22-.28.31-.42a1.65,1.65,0,0,0,.15-.25l.08-.13.06-.09a5.32,5.32,0,0,0,.21-.5l0-.09c0-.06,0-.13,0-.19s.06-.21.08-.31,0-.17,0-.25a1.49,1.49,0,0,0,0-.21,3.88,3.88,0,0,0,0-.76,4.43,4.43,0,0,0-.14-.58.24.24,0,0,0,0-.08,2.61,2.61,0,0,0-.24-.54l0,0a.91.91,0,0,0-.11-.16l-3.41-4.71.09-.17c.07-.12.15-.24.22-.37a3.13,3.13,0,0,0,.15-.32,5.31,5.31,0,0,0,.23-.55c0-.06,0-.13.05-.19.07-.22.12-.44.17-.65s.06-.2.08-.29,0-.09,0-.14a6.34,6.34,0,0,0,.07-.75l0-.37a7.5,7.5,0,0,0-.08-1.15,8,8,0,0,0-.17-.85,2.58,2.58,0,0,0-.08-.26,4.26,4.26,0,0,0-.17-.54c0-.1-.07-.19-.11-.29l-.21-.46-.15-.27a1.62,1.62,0,0,1-.1-.18l-.27-.4-9.23-12.71.09.13a6.58,6.58,0,0,0-2.07-1.92,9.42,9.42,0,0,0-6.65-.88,13.34,13.34,0,0,0-5,2.06,14.42,14.42,0,0,0-3.82,3.77,16.06,16.06,0,0,0-1.53,2.79l-.07-.09-1.64-2.27a1.4,1.4,0,0,0,.1.16,6.26,6.26,0,0,0-1.89-1.8,8.44,8.44,0,0,0-6.16-.89,12.54,12.54,0,0,0-4.9,2,14.69,14.69,0,0,0-3.74,3.72c-.06.08-.11.18-.16.26L163,166.49a.2.2,0,0,0,0,.08,2.88,2.88,0,0,0-.82-.81,3.44,3.44,0,0,0-2.61-.46c-2.14.4-3.56,1.87-4.23,4.38L154,175.1,149.6,169l0,.06a2.74,2.74,0,0,0-.87-.82,3.61,3.61,0,0,0-2.62-.4,4.63,4.63,0,0,0-2.81,1.56,9.56,9.56,0,0,0-1.66,3.62l-.47,1.9-2.95-4.06a1.76,1.76,0,0,1,.14.23l0,.06a2.35,2.35,0,0,0-.54-.68,3.49,3.49,0,0,0-.15-.34q-.16-.42-.36-.81c-.08-.17-.17-.34-.26-.5l-.2-.36c-.13-.21-.26-.41-.41-.61l-4-5.57,3.6-.67a7,7,0,0,0,1.07-.3c.11,0,.21-.11.32-.15a5.54,5.54,0,0,0,.64-.33l.1-.05c.14-.09.28-.2.42-.31l.22-.17,0,0a4.42,4.42,0,0,0,.53-.53l.1-.12a3.73,3.73,0,0,0,.35-.46c.08-.12.15-.24.22-.36h0a7.47,7.47,0,0,0,5.64,1l3.9-.73a6.43,6.43,0,0,0,2.29-.83l.06,0,.06,0a6.92,6.92,0,0,0,.65-.49l.07-.06.05,0,.18-.17.28-.27.19-.21.17-.18.19-.23.11-.13a4.1,4.1,0,0,0,4.13,1.12l5-.92a6.15,6.15,0,0,0,1.06-.3c.11,0,.21-.1.32-.15a6.36,6.36,0,0,0,.64-.32l.1-.05c.15-.1.28-.21.42-.32l.23-.17,0,0a6.88,6.88,0,0,0,.54-.54.52.52,0,0,1,.1-.11,1.47,1.47,0,0,1,.1-.13l.24.14a6.45,6.45,0,0,0,4.36.46l6.57-1.22a5.8,5.8,0,0,0,1-.3,3.13,3.13,0,0,0,.32-.15c.22-.1.44-.2.65-.32l.09-.05a5.07,5.07,0,0,0,.46-.35l.21-.16,0,0a5.48,5.48,0,0,0,.59-.59l.09-.11.06.07a2.82,2.82,0,0,0,.88.8,3.74,3.74,0,0,0,2.78.44,5,5,0,0,0,1-.27l.27-.11a5,5,0,0,0,.61-.31l.16-.07.14-.11a3.65,3.65,0,0,0,.31-.24l.18-.13c.06-.05.1-.11.15-.16l.21-.2.13-.14.2-.25.17-.22.07-.09c.07-.11.13-.23.2-.35a3,3,0,0,0,.18-.3l0-.06c0-.08.07-.17.11-.26s.19-.41.27-.63a.61.61,0,0,0,.05-.12c.08-.22.15-.44.21-.67l2-8.17,5.34,7.37a4.24,4.24,0,0,0,1.25,1.12,5.58,5.58,0,0,0,4,.57l7.28-1.35a6,6,0,0,0,1.07-.31l.32-.14a4.83,4.83,0,0,0,.64-.33l.1-.05c.15-.09.27-.2.41-.3l.24-.19a.1.1,0,0,0,0,0,5.6,5.6,0,0,0,.55-.54l.08-.1a5.07,5.07,0,0,0,.35-.46l.06-.11a1.51,1.51,0,0,0,.12-.2l.13-.21c.06-.11.11-.23.16-.34a7.4,7.4,0,0,0,6.14,1.38l3.91-.73a6.45,6.45,0,0,0,2.28-.83l.1-.06.08-.06c.19-.13.38-.28.58-.44l.07-.06.06-.05.19-.18c.09-.09.18-.17.27-.27l.2-.21.16-.18c.07-.07.13-.15.19-.22l.12-.14a4.08,4.08,0,0,0,4.12,1.13l5-.92a7.72,7.72,0,0,0,1-.28l.23-.09a6.74,6.74,0,0,0,.89-.45h0a6.46,6.46,0,0,0,.59-.44,4,4,0,0,0,.47.34,3.87,3.87,0,0,0,2.82.47,7.26,7.26,0,0,0,1-.27l.27-.12a4.37,4.37,0,0,0,.61-.31l.15-.07.16-.12a3.65,3.65,0,0,0,.31-.24l.17-.12.18-.18.2-.21a1.14,1.14,0,0,0,.11-.11,2.55,2.55,0,0,0,.24-.31l.15-.19.05-.06c.1-.14.18-.3.27-.45s.09-.15.13-.24l0,0c0-.07.06-.15.1-.23s.2-.44.29-.69c0,0,0,0,0-.08.09-.25.17-.52.24-.79l2-7.92,5.19,7.15a4.05,4.05,0,0,0,1.28,1.14,5.38,5.38,0,0,0,3.84.61l7.5-1.4a5.91,5.91,0,0,0,1.06-.3c.11,0,.21-.1.32-.15a6.36,6.36,0,0,0,.64-.32l.1,0c.14-.09.27-.2.41-.31s.16-.11.24-.18a.1.1,0,0,0,.05,0,7.13,7.13,0,0,0,.55-.55l.08-.09c.13-.16.24-.31.35-.47s.11-.18.16-.27a1.19,1.19,0,0,0,.09-.15l.07-.11a4.16,4.16,0,0,0,.23-.54l0-.1c0-.06,0-.13.05-.2a2.68,2.68,0,0,0,.1-.35c0-.09,0-.18,0-.27A2,2,0,0,0,272.25,132.41Zm-90.4,33.78a1.17,1.17,0,0,1,.05.11.61.61,0,0,1-.05-.12Zm.28.81a.14.14,0,0,1,0,.06.14.14,0,0,0,0-.06Zm20.44-4.39s0,.07,0,.11l-.06-.14Zm.29.83a.25.25,0,0,0,0,.07l0-.1ZM92.92,184.51c0,.05,0,.1,0,.14h0a1.54,1.54,0,0,0,0-.17Zm31.19-15.67h0l0,0Zm-.09-.05a2.57,2.57,0,0,0-.57-.3h0a2.57,2.57,0,0,1,.57.3Zm-.68-.34a2.9,2.9,0,0,0-.6-.12h0a2.9,2.9,0,0,1,.6.12ZM88.27,208l.29-.14c0,.17-.11.36-.17.53-.67,2-1.29,3.66-1.84,4.95a19.1,19.1,0,0,1-1.7,3.19c-2.13,3.07-4.63,4.89-7.42,5.41l-.19,0a15.14,15.14,0,0,1,.35-1.48c.15-.49.32-1,.51-1.43.05-.13.1-.27.16-.4a15.82,15.82,0,0,1,.67-1.45A1.09,1.09,0,0,1,79,217c.22-.43.47-.84.73-1.25l.21-.34c.3-.46.61-.9,1-1.34s.68-.82,1-1.22l.36-.39c.29-.3.58-.59.89-.88l.35-.33c.31-.28.63-.54,1-.8.15-.13.3-.26.46-.38.49-.38,1-.74,1.52-1.09.35-.22.71-.42,1.07-.62ZM68,218.71h0c0-.06-.06-.14-.1-.2h0C68,218.57,68,218.64,68,218.71Zm0,.06c0,.1.11.18.16.28h0c0-.1-.11-.18-.16-.28Zm.41.69a2.14,2.14,0,0,0,.13.19h0a2.14,2.14,0,0,1-.13-.19Zm-.71-1.33h0a1.36,1.36,0,0,1-.1-.21A1.36,1.36,0,0,0,67.75,218.13Zm23-34.85h0l0,0h0Zm151.17-79h0a1.24,1.24,0,0,0-.14-.18h0C241.86,104.16,241.91,104.23,242,104.29Zm-.34-.37h0a.74.74,0,0,0-.13-.12A.74.74,0,0,1,241.62,103.92Zm-.53-.41Zm-.4-.2h0l.18.09h0Zm-.42-.13h0l.18.06h0Zm-.28,0h0l-.18,0h0Zm-.51,0h-.16A.85.85,0,0,1,239.48,103.12Zm-11.83,3.8v0l0-.07A.05.05,0,0,0,227.65,106.92ZM189.91,94a.14.14,0,0,0,0,.06l0-.07Zm-19.5,14.79,0,.06,0-.07Zm-16.92,12v0a.43.43,0,0,1,0-.07ZM49.36,95.49l-.09-.11c.23.27.48.54.76.82C49.78,96,49.56,95.72,49.36,95.49ZM36.85,168.32c-.23-.25-.46-.51-.67-.78C36.39,167.81,36.62,168.07,36.85,168.32Zm.39.41c.25.26.51.5.77.73C37.75,169.23,37.49,169,37.24,168.73Zm1.14,1.06a14.26,14.26,0,0,0,1.23.94A14.26,14.26,0,0,1,38.38,169.79ZM91.45,183.9h0l0,0ZM60.06,228.39c-.31-.35-.61-.72-.9-1.1C59.45,227.67,59.75,228,60.06,228.39Zm.36.37c.27.29.55.57.85.84C61,229.33,60.69,229.05,60.42,228.76Zm1.21,1.16a15.33,15.33,0,0,0,1.28,1A15.33,15.33,0,0,1,61.63,229.92ZM134.21,210c-.13-.14-.26-.27-.38-.42C134,209.73,134.08,209.86,134.21,210Zm.26.26.47.41Zm.71.61a8.78,8.78,0,0,0,.77.54A8.78,8.78,0,0,1,135.18,210.87Zm67-49,.07.13-.1-.18Zm-20.71,3.58.08.16-.09-.17ZM163.28,167l0,.05,0-.06Zm-13.43,2.47a.08.08,0,0,1,0,0l0-.06Zm-11.2,2.18a.44.44,0,0,1,0,.1h0l-.07-.18A.59.59,0,0,0,138.65,171.63Z"/></g><g id="Text_front" data-name="Text front"><path class="cls-3" d="M45.67,85.17A7.17,7.17,0,0,1,50,82.08c2-.23,7.09-1.34,7.09-1.34s4.16-.65,7.23-1.17a17,17,0,0,1,6.21,0,15.4,15.4,0,0,1,5.36,2.1,14,14,0,0,1,4,3.84A12.58,12.58,0,0,1,82,90.69a25.19,25.19,0,0,1-.55,9.92L76,125.91l6.12-1,1.09-.18c3.08-.41,4.85.67,5.29,3.23a5.34,5.34,0,0,1-1.23,4.43,6.87,6.87,0,0,1-4.32,2.46l-1.09.19-8,1.35-1.81,8.07c-.46,2-.86,3.78-1.22,5.24s-.72,2.78-1.09,3.94-.78,2.23-1.18,3.21a28.65,28.65,0,0,1-1.47,3q-5.07,9.66-14.87,11.32A18.67,18.67,0,0,1,44.9,171a17.64,17.64,0,0,1-6.28-2.72,17.26,17.26,0,0,1-4.72-5,18.16,18.16,0,0,1-2.58-6.79,19.63,19.63,0,0,1,1.6-11.87A24.33,24.33,0,0,1,41.35,135a33.7,33.7,0,0,1,3.24-2,23.52,23.52,0,0,1,3.57-1.55c1.3-.45,2.76-.87,4.39-1.27s3.5-.76,5.62-1.12l6.52-1.2,5.43-25.31L71,98.16a14.88,14.88,0,0,0,.34-2.3,7,7,0,0,0-.06-1.63,5.11,5.11,0,0,0-2.58-3.62c-1.23-.74-4.08-.76-4.08-.76l-3.72.68c0,.14-4.77.79-9.08,1.6a9.66,9.66,0,0,1-4.95-.43C44.49,89.31,44.23,87.7,45.67,85.17Zm12.43,54c-1.28.28-2.4.57-3.39.88s-1.86.62-2.64.93a17.4,17.4,0,0,0-2.27,1.07,16.17,16.17,0,0,0-6,5.59,9.74,9.74,0,0,0-1.34,6.78,7.32,7.32,0,0,0,3.23,5.09,7.45,7.45,0,0,0,5.46,1.1,9.17,9.17,0,0,0,6.08-4.44q2.44-3.83,4.13-11.69l1.34-6.26Z"/><path class="cls-3" d="M83.75,154.37a7.11,7.11,0,0,1-2.67-.58,9.65,9.65,0,0,1-3.89-3.22,11.72,11.72,0,0,1-2-5,14.53,14.53,0,0,1,.22-6,15.74,15.74,0,0,1,2.45-5.41A16.5,16.5,0,0,1,82,130.08a13.54,13.54,0,0,1,5.47-2.21,12.18,12.18,0,0,1,4.59,0,10.9,10.9,0,0,1,3.88,1.6,9.79,9.79,0,0,1,2.84,3,11,11,0,0,1,1.53,4.14,15.46,15.46,0,0,1,.16,4,17.05,17.05,0,0,1-.78,3.91,17.34,17.34,0,0,1-1.59,3.57,11.8,11.8,0,0,1-2.3,2.87,9.12,9.12,0,0,1-3,1.81,26.17,26.17,0,0,1-4.72,1.15A25.94,25.94,0,0,1,83.75,154.37Zm7.3-18.79a3.68,3.68,0,0,0-2.94-.66,5.16,5.16,0,0,0-2.33,1A7.34,7.34,0,0,0,84,138a8.13,8.13,0,0,0-1,2.7,7.92,7.92,0,0,0,0,2.95q.61,3.66,4.77,3a11,11,0,0,0,1.84-.45,2.69,2.69,0,0,0,1.16-.88,7.15,7.15,0,0,0,1.66-3.19,8.92,8.92,0,0,0,.24-3.84A4,4,0,0,0,91.05,135.58Z"/><path class="cls-3" d="M125.42,140.19l.8-.14q3.36-.44,3.84,2.37a3.9,3.9,0,0,1-.89,3.22,5,5,0,0,1-3.14,1.8l-.8.14-6.75,1.15a5,5,0,0,1-3.58-.63,3.82,3.82,0,0,1-1.87-2.71,4.6,4.6,0,0,1,0-1.43c.06-.47.18-1.21.38-2.2l1.67-7.58a5.13,5.13,0,0,0,.16-1.88,1.68,1.68,0,0,0-.9-1.23,2.64,2.64,0,0,0-1.76-.25,4.78,4.78,0,0,0-3.31,2.77,13.17,13.17,0,0,0-1.24,3.24l-2.2,10.07-.26.94c-.6,2.63-2,4.12-4.18,4.5a3.51,3.51,0,0,1-2.52-.47,2.86,2.86,0,0,1-1.35-2,5.7,5.7,0,0,1,.15-2.36l.18-.93,3.86-17.37a4.43,4.43,0,0,1,3.8-3.95,3.72,3.72,0,0,1,3.93,1.67,15.44,15.44,0,0,1,3.08-2.69,8.75,8.75,0,0,1,3.08-1.11A7.52,7.52,0,0,1,121,124a5.75,5.75,0,0,1,2.73,4.14,7.43,7.43,0,0,1,.1,1.6,9.57,9.57,0,0,1-.21,1.79l-2.12,9.37Z"/><path class="cls-3" d="M152.6,135.56l.8-.14q3.36-.42,3.84,2.38a3.88,3.88,0,0,1-.89,3.21,5,5,0,0,1-3.14,1.81l-.8.13-4.21.72a3.7,3.7,0,0,1-4.12-1.57l-.51.64a7.42,7.42,0,0,1-1.75,1.64,5.88,5.88,0,0,1-2.11.74l-3.94.67a7.16,7.16,0,0,1-6.09-1.61,10.33,10.33,0,0,1-3.33-6.42,15.58,15.58,0,0,1,.19-6.19,18.62,18.62,0,0,1,2.29-5.69,16.12,16.12,0,0,1,3.91-4.34,11.31,11.31,0,0,1,5-2.24,7,7,0,0,1,6.57,1.84,5.55,5.55,0,0,1,1.52-2.18,4.93,4.93,0,0,1,2.29-.94,3.57,3.57,0,0,1,2.55.46,2.76,2.76,0,0,1,1.37,2,4.68,4.68,0,0,1,0,1.33c0,.4-.17,1.07-.38,2L149,136.18Zm-10.06-6.13.11-.57a2.6,2.6,0,0,0,.06-1.25,2.07,2.07,0,0,0-1.14-1.49,3.21,3.21,0,0,0-2.19-.34,4.57,4.57,0,0,0-2.31,1.18,8.91,8.91,0,0,0-1.9,2.42,12.08,12.08,0,0,0-1.16,3.09,7.84,7.84,0,0,0-.12,3.11,3.66,3.66,0,0,0,1.15,2.28,2.48,2.48,0,0,0,2.15.53l1.27-.21a3.5,3.5,0,0,0,1.6-.9,3.06,3.06,0,0,0,1-1.41Z"/><path class="cls-3" d="M168.89,114.49l.8-.14q3.34-.57,3.83,2.31a4,4,0,0,1-.89,3.25,4.9,4.9,0,0,1-3.12,1.84l-.81.13-2.34.4-2.53,11.37,3.61-.62.8-.13c2.24-.29,3.53.5,3.84,2.37a3.91,3.91,0,0,1-.89,3.22,5,5,0,0,1-3.14,1.8l-.8.14-5.81,1a6.09,6.09,0,0,1-4.11-.51,3.83,3.83,0,0,1-2-2.86,6.84,6.84,0,0,1,.15-2.78l.36-1.5,2.2-10.08q-4.14.7-4.64-2.23a3.88,3.88,0,0,1,.9-3.22,5,5,0,0,1,3.13-1.8l.8-.14,1.47-.25,1-4.57.25-.94c.61-2.63,2-4.12,4.12-4.49a3.36,3.36,0,0,1,2.49.47,2.91,2.91,0,0,1,1.31,2A6.19,6.19,0,0,1,169,110a9.41,9.41,0,0,1-.31,1.81l-.76,2.81Z"/><path class="cls-3" d="M186,112a12.05,12.05,0,0,1,1.27-.8,6.23,6.23,0,0,1,1.12-.47c.37-.1.8-.2,1.3-.29a7.63,7.63,0,0,1,5.37.88,5.58,5.58,0,0,1,2.75,4,9.75,9.75,0,0,1,.11,1.87,10,10,0,0,1-.22,1.93l-2,9.09,3.74-.64.8-.14q3.38-.44,3.85,2.37a4,4,0,0,1-.9,3.22,5,5,0,0,1-3.13,1.8l-.81.14-6.55,1.12a5.19,5.19,0,0,1-3.71-.61,4,4,0,0,1-1.89-2.84,6.19,6.19,0,0,1,0-2.06l.25-.94,1.69-7.86a8,8,0,0,0,.26-1.28,3.28,3.28,0,0,0,0-.89,1.61,1.61,0,0,0-.94-1.25,3,3,0,0,0-1.85-.2c-2.19.37-3.76,2.56-4.73,6.58l-2.07,9.64-.19.93q-.93,3.8-4.14,4.35a3.42,3.42,0,0,1-2.48-.44,2.81,2.81,0,0,1-1.31-2,6.5,6.5,0,0,1,.09-2.29l.25-.94,8.21-37.44a9.63,9.63,0,0,1,1.59-3.81,4.3,4.3,0,0,1,2.73-1.53,3.36,3.36,0,0,1,2.49.47,2.9,2.9,0,0,1,1.31,2,6.45,6.45,0,0,1-.09,2.28l-.19.93-3.61,16.36C185,112.78,185.54,112.35,186,112Z"/><path class="cls-3" d="M227.37,122.83l.81-.14c2.24-.29,3.52.51,3.84,2.38a3.85,3.85,0,0,1-.9,3.21,4.92,4.92,0,0,1-3.13,1.81l-.8.13-4.21.72a3.7,3.7,0,0,1-4.12-1.57l-.51.64a7.64,7.64,0,0,1-1.75,1.64,6,6,0,0,1-2.11.74l-4,.67a7.17,7.17,0,0,1-6.08-1.61,10.29,10.29,0,0,1-3.33-6.42,15.76,15.76,0,0,1,.18-6.19,18.64,18.64,0,0,1,2.3-5.69,16.09,16.09,0,0,1,3.9-4.34,11.4,11.4,0,0,1,5.06-2.24,7,7,0,0,1,6.57,1.84,5.45,5.45,0,0,1,1.52-2.18,4.93,4.93,0,0,1,2.28-.94,3.59,3.59,0,0,1,2.56.46,2.72,2.72,0,0,1,1.36,2,4.36,4.36,0,0,1,.06,1.33c0,.4-.17,1.07-.38,2l-2.78,12.38Zm-10.05-6.13.11-.57a2.6,2.6,0,0,0,.06-1.25,2.09,2.09,0,0,0-1.15-1.49,3.27,3.27,0,0,0-2.19-.35,4.76,4.76,0,0,0-2.31,1.19,8.69,8.69,0,0,0-1.89,2.42,12.08,12.08,0,0,0-1.16,3.09,7.84,7.84,0,0,0-.12,3.11,3.6,3.6,0,0,0,1.14,2.28,2.51,2.51,0,0,0,2.16.53l1.27-.22a3.38,3.38,0,0,0,1.6-.89,3.06,3.06,0,0,0,1-1.41Z"/><path class="cls-3" d="M258.13,117.6l.8-.14q3.36-.43,3.84,2.37a3.88,3.88,0,0,1-.9,3.22,5,5,0,0,1-3.13,1.8l-.8.14-6.75,1.15a5,5,0,0,1-3.58-.63,3.81,3.81,0,0,1-1.87-2.71,4.66,4.66,0,0,1,0-1.44c.05-.47.18-1.2.38-2.19l1.67-7.58a5.4,5.4,0,0,0,.16-1.89,1.67,1.67,0,0,0-.9-1.22,2.64,2.64,0,0,0-1.76-.25,4.76,4.76,0,0,0-3.31,2.77,12.87,12.87,0,0,0-1.24,3.23l-2.21,10.08-.25.94c-.61,2.62-2,4.12-4.19,4.49a3.48,3.48,0,0,1-2.52-.46,2.88,2.88,0,0,1-1.34-2,5.58,5.58,0,0,1,.15-2.37l.18-.92,3.85-17.38a4.43,4.43,0,0,1,3.8-3.94,3.69,3.69,0,0,1,3.93,1.67,15.55,15.55,0,0,1,3.09-2.7,8.75,8.75,0,0,1,3.08-1.11,7.63,7.63,0,0,1,5.41.87,5.79,5.79,0,0,1,2.73,4.15,8.13,8.13,0,0,1,.1,1.6,11.59,11.59,0,0,1-.21,1.79l-2.12,9.37Z"/><path class="cls-3" d="M102.88,198.69c-.38,1.8-.78,3.63-1.18,5.48s-.75,3.33-1,4.42q-2.79,11.53-8,17.62a22,22,0,0,1-13.52,7.49,22.23,22.23,0,0,1-8.22,0,17.59,17.59,0,0,1-6.85-2.9,17.85,17.85,0,0,1-5-5.46,22.27,22.27,0,0,1-2.74-7.71A27.4,27.4,0,0,1,57,205.38a32.68,32.68,0,0,1,5.48-11A35.1,35.1,0,0,1,71.82,186,33,33,0,0,1,84,181.32a10.46,10.46,0,0,1,5.94.37,4.38,4.38,0,0,1,2.67,3.44,4.51,4.51,0,0,1-1.29,4.37c-1.18,1.07-3.4,2-6.68,2.7A23.32,23.32,0,0,0,77,195.4a22,22,0,0,0-5.64,5.24,19.78,19.78,0,0,0-3.24,6.65,17.13,17.13,0,0,0-.33,7.41,9.88,9.88,0,0,0,3.57,6.53,8.59,8.59,0,0,0,7,1.45q4.45-.75,7.7-5.63a18.76,18.76,0,0,0,1.67-3.36c.53-1.33,1.1-3,1.73-5.09.37-1.22.74-2.51,1.12-3.87s.7-2.73,1-4.1l8.24-37.48-4.45.76-1.1.19q-4.56.6-5.22-3.27a5.37,5.37,0,0,1,1.19-4.44,6.79,6.79,0,0,1,4.29-2.46l1.1-.18,15.63-2.67q7.91-1.34,12.15,1t5.3,8.53a16.3,16.3,0,0,1-.53,7.83,15.53,15.53,0,0,1-4,6.53,15.05,15.05,0,0,1-4.56,2.94,32.11,32.11,0,0,1-7,1.88l-5.64,1Zm9.56-29q6.51-1.11,5.59-6.49a2.78,2.78,0,0,0-1.38-2.06,4.22,4.22,0,0,0-2.81-.34l-2.75.46-1.9,9Z"/><path class="cls-3" d="M122.93,181.38a6.92,6.92,0,0,1-1.12,2.81,3,3,0,0,1-1.91,1.09,3.11,3.11,0,0,1-2.23-.42,2.45,2.45,0,0,1-1.23-1.76,3.59,3.59,0,0,1,0-.92,14.63,14.63,0,0,1,.3-1.53l1.9-8.71a6.41,6.41,0,0,1,1-2.52,2.94,2.94,0,0,1,1.84-1,2.51,2.51,0,0,1,3,1.58l.4.86q.3.69.66.81a5,5,0,0,0,1.74-.11l6.89-1.18.72-.12q3.11-.53,3.57,2.17a3.62,3.62,0,0,1-.3,2.05,3.32,3.32,0,0,1-1.24,1.6,2.4,2.4,0,0,1-.9.46c-.36.11-1,.25-1.78.43l-.32.3c-.36.52-.67.95-.92,1.3s-.47.67-.66,1a6.11,6.11,0,0,0-.5.88l-.48,1a11.48,11.48,0,0,0-.82,2.08,3.53,3.53,0,0,0-.07,1.4c.28,1.64,1.32,2.3,3.11,2l3.66-.63.72-.12q3-.39,3.44,2.13a3.5,3.5,0,0,1-.77,2.87,4.34,4.34,0,0,1-2.78,1.62l-.72.12-5.75,1a5.87,5.87,0,0,1-.92,0c-.41,0-.87,0-1.37-.07A5.64,5.64,0,0,1,125.5,192a8,8,0,0,1-2-4.2,8.51,8.51,0,0,1,.34-4.16,24.57,24.57,0,0,1,2.67-5.29l-3.06.52Z"/><path class="cls-3" d="M162.35,189.83l.72-.12q3-.39,3.45,2.13a3.48,3.48,0,0,1-.81,2.88,4.46,4.46,0,0,1-2.8,1.62l-.72.12-4.74.8c-.1.6-.19,1.05-.26,1.37s-.2.85-.41,1.58a52.44,52.44,0,0,1-1.62,5.31,14.79,14.79,0,0,1-1.57,3.07,12.55,12.55,0,0,1-3.54,3.35,12.22,12.22,0,0,1-4.54,1.72,11.28,11.28,0,0,1-4.26,0,10.66,10.66,0,0,1-3.71-1.5,9.5,9.5,0,0,1-2.77-2.7,9.36,9.36,0,0,1-1.47-3.73,9.77,9.77,0,0,1,.9-6.1,10.65,10.65,0,0,1,4.37-4.6,25,25,0,0,1,8.08-2.48l4.8-.82.48-2.24a10,10,0,0,1-2,1.17,8.84,8.84,0,0,1-1.94.54,7.7,7.7,0,0,1-5.28-.76,5.28,5.28,0,0,1-2.66-3.87,7.06,7.06,0,0,1,0-2c.08-.75.24-1.72.49-2.91l1.83-8.45a9.21,9.21,0,0,1,1.47-3.49,4,4,0,0,1,2.51-1.39,3.2,3.2,0,0,1,2.32.41,2.58,2.58,0,0,1,1.21,1.83,4.76,4.76,0,0,1,0,1.19,13.13,13.13,0,0,1-.33,1.82l-1.69,7.5a15.75,15.75,0,0,0-.29,1.56,3.21,3.21,0,0,0,0,.83c.15.88.85,1.21,2.08,1a5.52,5.52,0,0,0,2.57-1.24,3.88,3.88,0,0,0,1.49-2.1L156,170.87l.17-.83c.54-2.35,1.79-3.7,3.75-4a3,3,0,0,1,2.3.44,2.73,2.73,0,0,1,1.18,1.87,6.33,6.33,0,0,1,.08,1,3.71,3.71,0,0,1-.17,1l-.15.89-4.26,19.16Zm-16,9.32q-6.72,1.14-6,5.43a3.15,3.15,0,0,0,1.33,2.2,3.36,3.36,0,0,0,2.58.49q2.8-.48,4.4-3.85a12.33,12.33,0,0,0,.85-2c.23-.73.52-1.7.89-2.92Z"/><path class="cls-3" d="M173.05,186.78a8.12,8.12,0,0,1-6.4-1.56,8.47,8.47,0,0,1-2.2-2.62,11.69,11.69,0,0,1-1.25-3.7,13.65,13.65,0,0,1,.15-5.33,14.34,14.34,0,0,1,2-4.78,13.3,13.3,0,0,1,3.54-3.63,11.69,11.69,0,0,1,4.7-1.91,8.17,8.17,0,0,1,5.93,1,6.59,6.59,0,0,1,3,4.73,5.61,5.61,0,0,1-.49,3.66,3.42,3.42,0,0,1-2.58,1.85,2.73,2.73,0,0,1-2.07-.38,2.21,2.21,0,0,1-1-1.62l-.22-1.32a1.76,1.76,0,0,0-.75-1.32,1.92,1.92,0,0,0-1.51-.33,3.72,3.72,0,0,0-1.79.86,5.78,5.78,0,0,0-1.4,1.72,7.23,7.23,0,0,0-.8,2.23,7.06,7.06,0,0,0,0,2.47q.44,2.56,2.31,3.06a11,11,0,0,0,1.74,0,16.24,16.24,0,0,0,2.18-.22l5.51-.94.72-.12q3-.39,3.44,2.13a3.48,3.48,0,0,1-.8,2.88,4.46,4.46,0,0,1-2.81,1.62l-.66.11Z"/><path class="cls-3" d="M193.89,176.63l8.69-1.48.72-.12q3-.39,3.45,2.13a3.52,3.52,0,0,1-.81,2.88,4.46,4.46,0,0,1-2.81,1.62l-.71.12-8.27,1.41a15.5,15.5,0,0,1-3.6.27,7.73,7.73,0,0,1-2.71-.74,9,9,0,0,1-4.7-7,13.81,13.81,0,0,1,.14-5.48,14.81,14.81,0,0,1,2.08-4.85,13,13,0,0,1,3.63-3.67,11.9,11.9,0,0,1,4.81-1.93,9.05,9.05,0,0,1,6.43,1,6.8,6.8,0,0,1,3.21,4.91,6.91,6.91,0,0,1-.41,3.92,6.36,6.36,0,0,1-2.44,2.91,4.69,4.69,0,0,1-.86.52,10,10,0,0,1-.93.37,8.34,8.34,0,0,1-1.14.32q-.66.15-1.56.3l-5.87,1C190.48,176.47,191.7,177,193.89,176.63Zm.05-7.71a6.22,6.22,0,0,0,2.28-.73,1.08,1.08,0,0,0,.55-1.11,1.46,1.46,0,0,0-.77-1,2.07,2.07,0,0,0-1.48-.24c-1.84.31-3.11,1.54-3.82,3.67Z"/></g></g></g></g></svg>